<?xml version="1.0" encoding="iso-8859-1"?>
<!-- Generator: Adobe Illustrator 19.0.0, SVG Export Plug-In . SVG Version: 6.00 Build 0)  -->
<svg version="1.1" id="Layer_1" xmlns="http://www.w3.org/2000/svg" xmlns:xlink="http://www.w3.org/1999/xlink" x="0px" y="0px"
	 viewBox="0 0 512 512" style="enable-background:new 0 0 512 512;" xml:space="preserve">
<g>
	<g>
		<path d="M438.665,29.564h-53.321v-5.807c0-13.1-10.657-23.757-23.757-23.757H224.324c-13.1,0-23.757,10.657-23.757,23.757v5.807
			H174.17v-5.807C174.17,10.657,163.513,0,150.413,0h-23.229c-13.1,0-23.757,10.657-23.757,23.757v135.151
			c0,13.1,10.657,23.757,23.757,23.757h23.229c13.1,0,23.757-10.657,23.757-23.757v-5.807h31.405l37.227,31.642v130.32
			l-18.383,18.383c-4.487,4.487-6.958,10.452-6.958,16.799v120.144c0,21.833,17.762,39.595,39.595,39.595h71.799
			c21.833,0,39.595-17.762,39.595-39.595v-19.006c0-4.373-3.546-7.919-7.919-7.919s-7.919,3.546-7.919,7.919v19.006
			c0,13.1-10.657,23.757-23.757,23.757h-71.799c-13.1,0-23.757-10.657-23.757-23.757v-11.087h25.869
			c4.373,0,7.919-3.546,7.919-7.919c0-4.373-3.546-7.919-7.919-7.919h-25.869v-17.95h25.869c4.373,0,7.919-3.546,7.919-7.919
			c0-4.373-3.546-7.919-7.919-7.919h-25.869v-17.95h25.869c4.373,0,7.919-3.546,7.919-7.919c0-4.373-3.546-7.919-7.919-7.919
			h-25.869v-25.644c0-2.115,0.824-4.104,2.319-5.599L254,326.263h77.91l18.383,18.383c1.496,1.496,2.319,3.484,2.319,5.599v58.904
			c0,4.373,3.546,7.919,7.919,7.919c4.373,0,7.919-3.546,7.919-7.919v-58.904c0-6.346-2.471-12.311-6.958-16.799l-18.383-18.383
			v-130.32l37.226-31.642h70.541l44.202,80.366c1.802,3.279,5.774,4.859,9.34,3.728c3.249-1.031,5.518-4.137,5.518-7.545V100.834
			C509.936,61.536,477.963,29.564,438.665,29.564z M158.332,158.908c0,4.367-3.552,7.919-7.919,7.919h-23.229
			c-4.367,0-7.919-3.552-7.919-7.919V23.757c0-4.367,3.552-7.919,7.919-7.919h23.229c4.367,0,7.919,3.552,7.919,7.919V158.908z
			 M200.567,137.263H174.17v-91.86h26.397V137.263z M327.271,310.425H258.64V189h68.631V310.425z M369.506,141.52L369.506,141.52
			l-37.227,31.642h-78.647l-37.227-31.642V23.757c0-4.367,3.552-7.919,7.919-7.919h137.263c4.367,0,7.919,3.552,7.919,7.919V141.52z
			 M494.098,198.821l-31.6-57.455c-1.392-2.531-4.05-4.103-6.939-4.103h-70.215v-91.86h53.321c30.566,0,55.433,24.867,55.433,55.433
			V198.821z"/>
	</g>
</g>
<g>
	<g>
		<path d="M352.084,29.564h-19.006c-4.373,0-7.919,3.546-7.919,7.919c0,4.373,3.546,7.919,7.919,7.919h19.006
			c4.373,0,7.919-3.546,7.919-7.919C360.003,33.11,356.457,29.564,352.084,29.564z"/>
	</g>
</g>
<g>
	<g>
		<path d="M299.29,29.564h-65.464c-4.373,0-7.919,3.546-7.919,7.919c0,4.373,3.546,7.919,7.919,7.919h65.464
			c4.373,0,7.919-3.546,7.919-7.919C307.209,33.11,303.664,29.564,299.29,29.564z"/>
	</g>
</g>
<g>
	<g>
		<path d="M189.48,299.866h-84.469c-4.373,0-7.919,3.546-7.919,7.919v23.229c0,4.373,3.546,7.919,7.919,7.919h17.422v127.232
			c0,1.108,0.232,2.204,0.682,3.216l16.894,38.011c2.729,6.143,11.742,6.144,14.473,0l16.894-38.011
			c0.45-1.013,0.682-2.109,0.682-3.216V338.933h17.422c4.373,0,7.919-3.546,7.919-7.919v-23.229
			C197.399,303.412,193.854,299.866,189.48,299.866z M156.221,464.484l-8.975,20.193l-8.975-20.193V339.989h17.95V464.484z
			 M181.561,323.095H112.93v-7.391h68.631V323.095z"/>
	</g>
</g>
<g>
	<g>
		<path d="M94.452,206.95H9.983c-4.373,0-7.919,3.546-7.919,7.919v23.229c0,4.373,3.546,7.919,7.919,7.919h17.422v44.874
			c0,4.373,3.546,7.919,7.919,7.919c4.373,0,7.919-3.546,7.919-7.919v-44.874h17.95v218.467l-8.975,20.193l-8.975-20.193V333.126
			c0-4.373-3.546-7.919-7.919-7.919c-4.373,0-7.919,3.546-7.919,7.919v133.039c0,1.108,0.232,2.204,0.682,3.216l16.894,38.011
			c2.729,6.143,11.742,6.144,14.473,0l16.894-38.011c0.45-1.013,0.682-2.109,0.682-3.216V246.017h17.422
			c4.374,0,7.92-3.546,7.92-7.919v-23.229C102.371,210.495,98.826,206.95,94.452,206.95z M86.533,230.179H17.902v-7.391h68.631
			V230.179z"/>
	</g>
</g>
<g>
</g>
<g>
</g>
<g>
</g>
<g>
</g>
<g>
</g>
<g>
</g>
<g>
</g>
<g>
</g>
<g>
</g>
<g>
</g>
<g>
</g>
<g>
</g>
<g>
</g>
<g>
</g>
<g>
</g>
</svg>
