<svg width="211" height="211" viewBox="0 0 211 211" fill="none" xmlns="http://www.w3.org/2000/svg">
<g filter="url(#filter0_d)">
<circle cx="104.5" cy="102.5" r="101.5" fill="white"/>
</g>
<path d="M66.4426 124.127C60.5175 119.696 53.1382 114.493 45 108.566L73.822 97.4559L85.661 106.351C76.7901 116.723 70.8836 120.434 66.4426 124.145V124.127ZM145.54 93.0064C143.312 87.0838 141.84 81.1425 139.615 75.2123C137.41 68.5288 135.2 62.6062 131.496 57.4182C130.008 55.2066 127.062 50 123.361 50C122.621 50 121.888 50.7347 121.133 50.7347C118.92 51.4956 115.96 55.9227 115.223 58.8952C113.018 62.6062 108.558 68.5288 105.616 72.2361C104.876 73.713 103.384 75.2086 102.651 75.9508C100.446 77.424 98.2141 79.6618 95.2721 81.1387C94.5133 81.1387 93.7806 81.8735 93.0441 81.8735C90.831 81.8735 89.3395 83.3504 87.8703 84.0852C85.6573 86.3229 83.433 89.2731 81.2237 91.5109C81.2237 92.2456 80.4649 92.9841 79.7322 93.7449L90.831 101.879C98.9692 92.2456 108.577 82.6082 115.219 64.0794C115.219 64.0794 113.014 84.1038 95.2683 105.594C84.1658 118.2 75.2912 124.88 73.8183 126.357C73.8183 126.357 76.7641 125.622 79.7285 127.099C85.6536 129.311 88.5994 137.471 90.8273 143.394C92.3002 147.843 94.5058 151.554 96.0011 156C101.911 154.523 105.612 152.289 109.313 148.582C112.991 144.893 116.692 140.44 120.393 136.733C127.058 128.576 135.178 118.204 145.522 123.392C147.01 124.127 149.223 125.626 149.955 126.361C152.183 127.838 153.656 129.314 155.88 131.549C159.566 134.502 161.054 136.736 164 138.213C156.621 123.396 151.447 108.57 145.522 92.9915L145.54 93.0064Z" fill="url(#paint0_linear)"/>
<defs>
<filter id="filter0_d" x="0" y="0" width="211" height="211" filterUnits="userSpaceOnUse" color-interpolation-filters="sRGB">
<feFlood flood-opacity="0" result="BackgroundImageFix"/>
<feColorMatrix in="SourceAlpha" type="matrix" values="0 0 0 0 0 0 0 0 0 0 0 0 0 0 0 0 0 0 127 0"/>
<feOffset dx="1" dy="3"/>
<feGaussianBlur stdDeviation="2"/>
<feColorMatrix type="matrix" values="0 0 0 0 0 0 0 0 0 0 0 0 0 0 0 0 0 0 0.25 0"/>
<feBlend mode="normal" in2="BackgroundImageFix" result="effect1_dropShadow"/>
<feBlend mode="normal" in="SourceGraphic" in2="effect1_dropShadow" result="shape"/>
</filter>
<linearGradient id="paint0_linear" x1="156" y1="56" x2="104.5" y2="156" gradientUnits="userSpaceOnUse">
<stop stop-color="#26CDAF"/>
<stop offset="1" stop-color="#842CBA" stop-opacity="0.15625"/>
</linearGradient>
</defs>
</svg>
